<?xml version="1.0" encoding="UTF-8"?>
<svg id="Layer_1" xmlns="http://www.w3.org/2000/svg" version="1.1" viewBox="0 0 28.5 28.5">
  <!-- Generator: Adobe Illustrator 30.2.1, SVG Export Plug-In . SVG Version: 2.1.1 Build 1)  -->
  <defs>
    <style>
      .st0 {
        fill-opacity: .04;
      }

      .st0, .st1, .st2 {
        fill: #fefefe;
      }

      .st0, .st1, .st2, .st3, .st4 {
        fill-rule: evenodd;
      }

      .st1 {
        fill-opacity: .1;
      }

      .st2 {
        fill-opacity: .11;
      }

      .st3 {
        fill: #1930ab;
      }

      .st4 {
        fill: #00b0f0;
      }
    </style>
  </defs>
  <g id="Layer_x5F_1">
    <path class="st4" d="M2.48,9.54C1.22,9.54.18,8.59.02,7.38H.02c-.02-.11-.02-.22-.02-.32h0v-.06h0v-.06h0v-.06h0s0-.05.02-.06H.02v-.06H.02s0-.05.02-.06H.03v-.06H.03s.02-.03.02-.05H.05s0-.05.02-.06H.06s0-.05.02-.06c0-.02,0-.03.02-.06H.1s0-.03.02-.05H.11s.02-.05.02-.06.02-.03.02-.05H.14s.02-.05.03-.06H.18s0-.03.02-.05H.19s.02-.05.02-.06H.21s.03-.03.03-.05H.24s.02-.05.03-.06H.27s.02-.03.02-.05c.02-.02.03-.03.03-.05H.32s.03-.03.03-.05H.35s.03-.05.03-.06H.38s.03-.03.03-.05c.02-.02.03-.03.03-.05H.45l.05-.05s.02-.03.03-.05h0s.02-.03.03-.05h0l.05-.05h0l.03-.03.05-.05h0s.02-.03.03-.05.03-.02.05-.03l.05-.05s.02-.02.03-.03l.05-.05h0s.03-.02.05-.03.03-.03.05-.03c.02-.02.03-.03.05-.03h0l.05-.05s.03-.02.05-.03h0s.03-.02.05-.03c.02,0,.03-.02.06-.02.02-.02.03-.03.05-.03h0s.03-.02.05-.03h0s.03-.02.05-.03h0s.05-.02.06-.02c.02-.02.03-.02.05-.03.03,0,.05-.02.06-.02h0s.03-.02.05-.03c.03,0,.05,0,.06-.02.02,0,.03-.02.06-.02.02,0,.03-.02.05-.02s.05-.02.06-.02.03-.02.06-.02c.02,0,.03-.02.05-.02.03,0,.05,0,.06-.02h.06s.05-.02.06-.02h.06s.03,0,.06-.02h.38l.02.02h.13v.02h.1l.02.02h.06l.02.02h.06v.02h.05l.02.02h.02c1.04.29,1.79,1.25,1.79,2.38,0,1.36-1.1,2.48-2.46,2.48Z"/>
    <g id="_1518341424720">
      <path class="st3" d="M6.24,23.92c-1.34,0-2.45-1.1-2.45-2.45v-6.99c0-.99.21-1.95.59-2.88.37-.88.9-1.66,1.58-2.34.67-.69,1.47-1.22,2.35-1.58.91-.38,1.87-.59,2.86-.59s1.94.19,2.83.56h0c.13.06.27.11.42.19.62.3,1.2.69,1.71,1.17-.1.08-.18.16-.27.26-.67.67-1.2,1.46-1.58,2.34-.38.93-.58,1.89-.58,2.88,0-1.17-.82-2.16-1.9-2.45v.02h0c-.21-.06-.4-.08-.62-.08-1.38,0-2.51,1.14-2.51,2.51v6.99c0,1.34-1.09,2.45-2.43,2.45ZM16.15,9.01c-.51-.48-1.09-.86-1.71-1.17.59.29,1.25.74,1.71,1.17Z"/>
      <path class="st3" d="M26.07,23.92c-1.34,0-2.43-1.1-2.43-2.45v-2.88h0v-4.11c0-1.38-1.14-2.51-2.53-2.51-.35,0-.7.08-1.01.21-.9.4-1.5,1.28-1.5,2.3v6.99c0,1.34-1.1,2.45-2.45,2.45s-2.43-1.1-2.43-2.45v-6.99c0-.99.19-1.95.58-2.88.38-.88.91-1.66,1.58-2.34.1-.1.18-.18.27-.26.62-.56,1.31-1.01,2.08-1.33.91-.38,1.89-.59,2.88-.59.3,0,.59.02.88.06.69.08,1.36.26,2,.53.88.37,1.66.9,2.35,1.58s1.2,1.46,1.58,2.34c.11.27.21.54.29.8.19.67.29,1.38.29,2.08v6.99c0,1.34-1.09,2.45-2.43,2.45ZM16.15,9.01h0Z"/>
      <path class="st0" d="M13.71,14.48c0-1.17-.82-2.16-1.9-2.43.08-.58.24-1.12.46-1.65.38-.88.91-1.68,1.58-2.35.1-.08.19-.18.27-.26.03-.02.05-.05.08-.06.7.32,1.36.75,1.94,1.28-.08.08-.18.16-.27.26-.67.67-1.2,1.46-1.58,2.34-.38.93-.58,1.89-.58,2.88Z"/>
      <path class="st1" d="M23.65,18.58v-4.1c0-1.39-1.14-2.53-2.53-2.53-.35,0-.7.08-1.01.21.3-1.81.96-3.52,1.89-5.02.69.08,1.36.26,2,.53.88.37,1.66.91,2.35,1.58.67.67,1.2,1.47,1.58,2.35.11.26.21.53.29.8-2.06,1.57-3.66,3.71-4.58,6.18Z"/>
    </g>
    <path class="st2" d="M.02,7.38c-.02-.11-.02-.22-.02-.32,0-1.38,1.1-2.48,2.48-2.48.22,0,.46.03.67.1C2.48,5.9,1.36,6.88.02,7.38Z"/>
  </g>
</svg>